<svg aria-hidden="true" style="position:absolute;width:0;height:0;overflow:hidden" xmlns="http://www.w3.org/2000/svg">
  <defs>
    <symbol id="icon-twitter" viewBox="0 0 32 32">
      <path stroke-linejoin="round" stroke-linecap="round" stroke-width="2.667" d="M30.667 4a14.542 14.542 0 0 1-4.187 2.04 5.975 5.975 0 0 0-6.637-1.661A5.981 5.981 0 0 0 16 10.04v1.333c-2.343.061-4.665-.459-6.759-1.513S4.68 6.297 3.333 4.379c0 0-4.667 12.954 7.333 18.287a15.519 15.519 0 0 1-9.333 2.667C13.333 32 28 25.333 28 10a5.966 5.966 0 0 0-.107-1.107A10.288 10.288 0 0 0 30.666 4z"/>
    </symbol>
    <symbol id="icon-instagram" viewBox="0 0 32 32">
      <path stroke-linejoin="round" stroke-linecap="round" stroke-width="2.667" d="M22.667 2.667H9.334a6.667 6.667 0 0 0-6.667 6.667v13.333a6.667 6.667 0 0 0 6.667 6.667h13.333a6.667 6.667 0 0 0 6.667-6.667V9.334a6.667 6.667 0 0 0-6.667-6.667z"/>
      <path stroke-linejoin="round" stroke-linecap="round" stroke-width="2.667" d="M21.333 15.16a5.329 5.329 0 0 1-2.878 5.546 5.337 5.337 0 0 1-6.169-.992 5.33 5.33 0 0 1 1.316-8.505 5.336 5.336 0 0 1 6.228.962 5.328 5.328 0 0 1 1.504 2.989zM23.333 8.667h.013"/>
    </symbol>
    <symbol id="icon-logoicon" viewBox="0 0 21 24">
    <path fill="none" stroke="#fd9222" style="stroke: var(--color1, #fd9222)" stroke-linejoin="round" stroke-linecap="round" stroke-miterlimit="4" stroke-width="2" d="M15.226 17.91l-10.64-6.648M7.521 6.449l10.639 6.648M6.972 19.398l8.802-14.437M19.382 11.091c-2.28-1.424-3.175-2.537-1.708-4.943l-7.22-4.512-8.801 14.438 10.639 6.648 7.090-11.63z"></path>
    </symbol>
    <symbol id="icon-phone" viewBox="0 0 24 24">
    <path stroke-linejoin="round" stroke-linecap="round" stroke-miterlimit="4" stroke-width="2" d="M22 16.92v3c0 0.002 0 0.005 0 0.007 0 1.105-0.896 2.001-2.001 2.001-0.063 0-0.125-0.003-0.187-0.009l0.008 0.001c-3.245-0.362-6.177-1.457-8.705-3.116l0.075 0.046c-2.432-1.561-4.439-3.568-5.953-5.923l-0.047-0.077c-1.619-2.465-2.715-5.41-3.062-8.582l-0.008-0.088c-0.005-0.054-0.008-0.117-0.008-0.18 0-1.104 0.894-1.999 1.998-2h3c0.006-0 0.013-0 0.020-0 1.006 0 1.838 0.742 1.979 1.709l0.001 0.011c0.127 0.96 0.362 1.903 0.7 2.81 0.081 0.209 0.128 0.451 0.128 0.704 0 0.548-0.221 1.045-0.578 1.406l-1.27 1.27c1.449 2.517 3.483 4.551 5.923 5.959l0.077 0.041 1.27-1.27c0.361-0.357 0.858-0.578 1.406-0.578 0.253 0 0.495 0.047 0.718 0.133l-0.014-0.005c0.907 0.338 1.85 0.573 2.81 0.7 0.978 0.142 1.721 0.974 1.721 1.98 0 0.017-0 0.035-0.001 0.052l0-0.003z"></path>
    </symbol>
    <symbol id="icon-user" viewBox="0 0 24 24">
    <path stroke-linejoin="round" stroke-linecap="round" stroke-miterlimit="4" stroke-width="2" d="M20 21v-2c0-2.209-1.791-4-4-4v0h-8c-2.209 0-4 1.791-4 4v0 2M12 11c2.209 0 4-1.791 4-4s-1.791-4-4-4v0c-2.209 0-4 1.791-4 4s1.791 4 4 4v0z"></path>
    </symbol>
    <symbol id="icon-mail" viewBox="0 0 24 24">
    <path stroke-linejoin="round" stroke-linecap="round" stroke-miterlimit="4" stroke-width="2" d="M4 4h16c1.1 0 2 0.9 2 2v12c0 1.1-0.9 2-2 2h-16c-1.1 0-2-0.9-2-2v-12c0-1.1 0.9-2 2-2z"></path>
    <path stroke-linejoin="round" stroke-linecap="round" stroke-miterlimit="4" stroke-width="2" d="M22 6l-10 7-10-7"></path>
    </symbol>
    <symbol id="icon-check" viewBox="0 0 32 32">
    <path d="M12.637 31.213c1.395 0 2.448-0.534 3.162-1.606l15.45-23.28c0.256-0.381 0.448-0.752 0.566-1.12 0.125-0.381 0.186-0.742 0.186-1.088 0-0.96-0.336-1.754-1.005-2.378-0.608-0.591-1.438-0.955-2.354-0.955-0.031 0-0.062 0-0.092 0.001l0.005-0c-0.672 0-1.238 0.134-1.709 0.4-0.458 0.256-0.893 0.704-1.306 1.341l-12.97 20.368-6.496-7.782c-0.618-0.749-1.547-1.223-2.587-1.223-0.020 0-0.040 0-0.059 0.001l0.003-0c-0.992 0-1.811 0.32-2.461 0.954-0.599 0.585-0.971 1.4-0.971 2.303 0 0.032 0 0.064 0.001 0.096l-0-0.005c0 0.435 0.064 0.848 0.202 1.238 0.144 0.381 0.406 0.774 0.787 1.187l8.618 10.16c0.794 0.928 1.802 1.389 3.030 1.389z"></path>
    </symbol>
    <symbol id="icon-menu-btn-1" viewBox="0 0 32 32">
    <path stroke-linejoin="round" stroke-linecap="round" stroke-miterlimit="4" stroke-width="2.2857" d="M4 16h24M4 8h24M4 24h24"></path>
    </symbol>
    <symbol id="icon-menu-btn-1-converted" viewBox="0 0 32 32">
    <path d="M3.462 7.005c-0.156 0.092-0.288 0.209-0.393 0.348l-0.002 0.003c-0.144 0.206-0.16 0.266-0.16 0.645s0.016 0.439 0.16 0.645c0.088 0.125 0.266 0.283 0.397 0.352l0.235 0.125 24.71-0.027 0.197-0.134c0.109-0.073 0.263-0.227 0.343-0.342 0.128-0.184 0.146-0.258 0.146-0.623 0-0.373-0.016-0.435-0.16-0.64-0.108-0.141-0.239-0.259-0.389-0.347l-0.006-0.003-0.235-0.125h-24.606l-0.235 0.125zM3.462 15.005c-0.156 0.092-0.288 0.209-0.393 0.348l-0.002 0.003c-0.144 0.206-0.16 0.266-0.16 0.645s0.016 0.439 0.16 0.645c0.088 0.125 0.266 0.283 0.397 0.352l0.235 0.125 24.71-0.027 0.197-0.134c0.109-0.073 0.263-0.227 0.343-0.342 0.128-0.184 0.146-0.258 0.146-0.623 0-0.373-0.016-0.435-0.16-0.64-0.108-0.142-0.239-0.259-0.389-0.347l-0.006-0.003-0.235-0.125h-24.606l-0.235 0.125zM3.462 23.005c-0.156 0.092-0.288 0.209-0.393 0.348l-0.002 0.003c-0.144 0.206-0.16 0.266-0.16 0.645s0.016 0.439 0.16 0.645c0.088 0.125 0.266 0.283 0.397 0.352l0.235 0.125 24.71-0.027 0.197-0.134c0.109-0.073 0.263-0.227 0.343-0.342 0.128-0.184 0.146-0.258 0.146-0.623 0-0.373-0.016-0.435-0.16-0.64-0.108-0.142-0.239-0.259-0.389-0.347l-0.006-0.003-0.235-0.125h-24.606l-0.235 0.125z"></path>
    </symbol>
    <symbol id="icon-scrol-1-converted" viewBox="0 0 32 32">
    <path fill="#fd9222" style="fill: var(--color1, #fd9222)" d="M7.36 11.498c-0.135 0.078-0.252 0.158-0.361 0.248l0.005-0.004c-0.182 0.17-0.344 0.608-0.344 0.928 0 0.578-0.038 0.534 3.328 3.906 1.708 1.71 3.262 3.238 3.452 3.394 0.436 0.36 0.926 0.626 1.44 0.786 0.578 0.18 1.662 0.18 2.24 0 0.512-0.16 1.004-0.426 1.44-0.786 0.19-0.156 1.754-1.696 3.474-3.42 2.952-2.96 3.132-3.152 3.22-3.424 0.047-0.13 0.074-0.28 0.074-0.436 0-0.73-0.592-1.322-1.322-1.322-0.051 0-0.102 0.003-0.152 0.009l0.006-0.001c-0.168 0.018-0.322 0.060-0.464 0.122l0.010-0.004c-0.098 0.050-1.644 1.55-3.432 3.334-2.35 2.342-3.312 3.266-3.46 3.328-0.154 0.051-0.33 0.081-0.514 0.081s-0.36-0.030-0.526-0.084l0.012 0.003c-0.148-0.062-1.106-0.982-3.46-3.328-2.17-2.166-3.328-3.282-3.478-3.356-0.167-0.075-0.361-0.118-0.566-0.118-0.226 0-0.441 0.053-0.63 0.148l0.008-0.004z"></path>
    </symbol>
    <symbol id="icon-Group-1" viewBox="0 0 32 32">
    <path fill="#000" style="fill: var(--color2, #000)" d="M13.511 0.472l8.602 8.613 0.091-0.091c0.176-0.173 0.418-0.279 0.684-0.279 0.259 0 0.494 0.101 0.669 0.265l-0.001-0.001 0.998 0.998c0.349 0.349 0.36 0.88 0.095 1.25l-0.005 0.008-0.163 0.219 7.040 7.040c0.629 0.629 0.629 1.634 0 2.263l-10.777 10.777c-0.629 0.629-1.634 0.629-2.263 0l-5.082-5.082c-0.178 0.223-0.449 0.365-0.754 0.365-0.266 0-0.508-0.108-0.682-0.284l-2.971-2.971c-0.173-0.176-0.279-0.418-0.279-0.684 0-0.259 0.101-0.494 0.265-0.669l-0.001 0.001 0.007-0.008 0.088-0.087-8.602-8.602c-0.629-0.629-0.629-1.634 0-2.263l10.777-10.777c0.629-0.629 1.634-0.629 2.263 0v0.001zM21.033 10.163l-2.007-2.006c-0.123-0.127-0.295-0.206-0.486-0.206s-0.363 0.079-0.486 0.205l-4.092 4.092c-0.126 0.126-0.205 0.299-0.205 0.491s0.078 0.366 0.205 0.491l1.999 1.999 0.697-0.697-1.789-1.789 3.669-3.68 1.793 1.799 0.701-0.701zM15.232 15.96l-2.005-2.005c-0.123-0.127-0.295-0.206-0.486-0.206s-0.363 0.079-0.486 0.205l-4.103 4.103c-0.274 0.263-0.274 0.697 0 0.971l2.002 2.002 0.704-0.704-1.794-1.787 3.68-3.669 1.787 1.786 0.699-0.698zM7.797 7.078l4.091 4.091c0.274 0.274 0.709 0.274 0.971-0.011l4.091-4.091c0.127-0.121 0.206-0.291 0.206-0.479 0-0 0-0 0-0.001v0h0.011c0-0.171-0.069-0.354-0.206-0.491l-4.091-4.091c-0.125-0.127-0.299-0.206-0.491-0.206s-0.366 0.079-0.491 0.205l-0 0-4.091 4.103c-0.274 0.263-0.274 0.697 0 0.971zM2.002 12.872l4.091 4.091c0.274 0.274 0.709 0.274 0.971 0l4.091-4.091c0.127-0.121 0.206-0.291 0.206-0.48 0-0.004-0-0.008-0-0.012v0.001h0.011c0-0.183-0.069-0.354-0.206-0.491l-4.091-4.091c-0.123-0.127-0.295-0.206-0.486-0.206s-0.363 0.079-0.486 0.205l-4.103 4.103c-0.274 0.263-0.274 0.697 0 0.971zM9.926 22.877l2.699 2.701 11.013-14.903-0.749-0.749-12.963 12.951z"></path>
    <path fill="#fd9222" style="fill: var(--color1, #fd9222)" d="M13.511 0.472l8.602 8.613 0.091-0.091c0.176-0.173 0.418-0.279 0.684-0.279 0.259 0 0.494 0.101 0.669 0.265l-0.001-0.001 0.998 0.998c0.349 0.349 0.36 0.88 0.095 1.25l-0.005 0.008-0.163 0.219 7.040 7.040c0.629 0.629 0.629 1.634 0 2.263l-10.777 10.777c-0.629 0.629-1.634 0.629-2.263 0l-5.082-5.082c-0.178 0.223-0.449 0.365-0.754 0.365-0.266 0-0.508-0.108-0.682-0.284l-2.971-2.971c-0.173-0.176-0.279-0.418-0.279-0.684 0-0.259 0.101-0.494 0.265-0.669l-0.001 0.001 0.007-0.008 0.088-0.087-8.602-8.602c-0.629-0.629-0.629-1.634 0-2.263l10.777-10.777c0.629-0.629 1.634-0.629 2.263 0v0.001zM21.033 10.163l-2.007-2.006c-0.123-0.127-0.295-0.206-0.486-0.206s-0.363 0.079-0.486 0.205l-4.092 4.092c-0.126 0.126-0.205 0.299-0.205 0.491s0.078 0.366 0.205 0.491l1.999 1.999 0.697-0.697-1.789-1.789 3.669-3.68 1.793 1.799 0.701-0.701zM15.232 15.96l-2.005-2.005c-0.123-0.127-0.295-0.206-0.486-0.206s-0.363 0.079-0.486 0.205l-4.103 4.103c-0.274 0.263-0.274 0.697 0 0.971l2.002 2.002 0.704-0.704-1.794-1.787 3.68-3.669 1.787 1.786 0.699-0.698zM7.797 7.078l4.091 4.091c0.274 0.274 0.709 0.274 0.971-0.011l4.091-4.091c0.127-0.121 0.206-0.291 0.206-0.479 0-0 0-0 0-0.001v0h0.011c0-0.171-0.069-0.354-0.206-0.491l-4.091-4.091c-0.125-0.127-0.299-0.206-0.491-0.206s-0.366 0.079-0.491 0.205l-0 0-4.091 4.103c-0.274 0.263-0.274 0.697 0 0.971zM2.002 12.872l4.091 4.091c0.274 0.274 0.709 0.274 0.971 0l4.091-4.091c0.127-0.121 0.206-0.291 0.206-0.48 0-0.004-0-0.008-0-0.012v0.001h0.011c0-0.183-0.069-0.354-0.206-0.491l-4.091-4.091c-0.123-0.127-0.295-0.206-0.486-0.206s-0.363 0.079-0.486 0.205l-4.103 4.103c-0.274 0.263-0.274 0.697 0 0.971zM9.926 22.877l2.699 2.701 11.013-14.903-0.749-0.749-12.963 12.951z"></path>
    </symbol>
    <symbol id="icon-Group1-1" viewBox="0 0 32 32">
    <path fill="#fd9222" style="fill: var(--color1, #fd9222)" d="M16 0.762c-8.381 0-15.238 6.857-15.238 15.238s6.857 15.238 15.238 15.238 15.238-6.857 15.238-15.238-6.857-15.238-15.238-15.238zM16 28.191c-6.705 0-12.191-5.486-12.191-12.191s5.486-12.191 12.191-12.191 12.191 5.486 12.191 12.191-5.486 12.191-12.191 12.191z"></path>
    <path fill="#fd9222" style="fill: var(--color1, #fd9222)" d="M17.981 14.477h-3.961c-0.762 0-1.371-0.61-1.371-1.371 0-0.762 0.609-1.371 1.371-1.371h5.638c0.914 0 1.525-0.61 1.525-1.525s-0.61-1.523-1.525-1.523h-2.133v-1.371c0-0.914-0.61-1.523-1.525-1.523s-1.523 0.609-1.523 1.523v1.371h-0.457c-2.44 0.002-4.417 1.979-4.419 4.419v0c0.003 2.439 1.98 4.416 4.419 4.418h3.809c0.762 0 1.371 0.61 1.371 1.371 0 0.762-0.609 1.371-1.371 1.371h-5.638c-0.914 0-1.525 0.61-1.525 1.525s0.61 1.523 1.525 1.523h2.286v1.371c0 0.914 0.609 1.523 1.523 1.523s1.525-0.609 1.525-1.523v-1.371h0.457c2.439-0.003 4.416-1.98 4.418-4.419v-0c-0.003-2.439-1.98-4.416-4.419-4.418h-0z"></path>
    </symbol>
    <symbol id="icon-Group2-1" viewBox="0 0 32 32">
    <path fill="#fd9222" style="fill: var(--color1, #fd9222)" d="M15.374 13.835c-0.837-1.010-1.345-2.319-1.345-3.747 0-0.001 0-0.002 0-0.004v0c0-4.942 5.921-9.877 11.842-9.877 3.27 0.001 5.921 2.652 5.921 5.922v0c0 5.922-4.934 11.845-9.881 11.845-0.001 0-0.002 0-0.003 0-1.428 0-2.737-0.508-3.756-1.353l0.010 0.008-14.581 14.584c-0.352 0.328-0.826 0.53-1.347 0.53-1.092 0-1.977-0.885-1.977-1.977 0-0.521 0.201-0.995 0.531-1.348l-0.001 0.001 14.587-14.584z"></path>
    </symbol>
    <symbol id="icon-close2" viewBox="0 0 32 32">
    <path fill="none" stroke="#fff" style="stroke: var(--color1, #fff)" stroke-linejoin="round" stroke-linecap="round" stroke-miterlimit="4" stroke-width="4.5714" d="M29.333 2.667l-26.667 26.667M2.666 2.667l26.667 26.667"></path>
    </symbol>
    <symbol id="icon-x-close-1" viewBox="0 0 32 32">
    <path stroke-linejoin="round" stroke-linecap="round" stroke-miterlimit="4" stroke-width="2.2857" d="M24 8l-16 16M8 8l16 16"></path>
    </symbol>
    <symbol id="icon-mail-2" viewBox="0 0 24 24">
<path stroke-linejoin="round" stroke-linecap="round" stroke-miterlimit="4" stroke-width="2" d="M4 4h16c1.1 0 2 0.9 2 2v12c0 1.1-0.9 2-2 2h-16c-1.1 0-2-0.9-2-2v-12c0-1.1 0.9-2 2-2z"></path>
<path stroke-linejoin="round" stroke-linecap="round" stroke-miterlimit="4" stroke-width="2" d="M22 6l-10 7-10-7"></path>
</symbol>
<symbol id="icon-phone-2" viewBox="0 0 24 24">
<path stroke-linejoin="round" stroke-linecap="round" stroke-miterlimit="4" stroke-width="2" d="M22 16.92v3c0 0.002 0 0.004 0 0.006 0 1.106-0.896 2.002-2.002 2.002-0.063 0-0.125-0.003-0.186-0.009l0.008 0.001c-3.245-0.362-6.177-1.457-8.705-3.116l0.075 0.046c-2.432-1.561-4.439-3.568-5.953-5.923l-0.047-0.077c-1.619-2.465-2.715-5.41-3.062-8.582l-0.008-0.088c-0.005-0.054-0.008-0.117-0.008-0.18 0-1.104 0.894-1.999 1.998-2h3c0.006-0 0.013-0 0.020-0 1.006 0 1.838 0.742 1.979 1.709l0.001 0.011c0.127 0.96 0.362 1.903 0.7 2.81 0.081 0.209 0.128 0.451 0.128 0.704 0 0.548-0.221 1.045-0.578 1.406l-1.27 1.27c1.449 2.517 3.483 4.551 5.923 5.959l0.077 0.041 1.27-1.27c0.361-0.357 0.858-0.578 1.406-0.578 0.253 0 0.495 0.047 0.718 0.133l-0.014-0.005c0.907 0.338 1.85 0.573 2.81 0.7 0.978 0.142 1.721 0.974 1.721 1.98 0 0.017-0 0.035-0.001 0.052l0-0.003z"></path>
</symbol>
  </defs>
</svg>
