<svg aria-hidden="true" style="position:absolute;width:0;height:0;overflow:hidden" xmlns="http://www.w3.org/2000/svg">
  <defs>
    <symbol id="icon-twitter" viewBox="0 0 32 32">
      <path stroke-linejoin="round" stroke-linecap="round" stroke-width="2.667" d="M30.667 4a14.542 14.542 0 0 1-4.187 2.04 5.975 5.975 0 0 0-6.637-1.661A5.981 5.981 0 0 0 16 10.04v1.333c-2.343.061-4.665-.459-6.759-1.513S4.68 6.297 3.333 4.379c0 0-4.667 12.954 7.333 18.287a15.519 15.519 0 0 1-9.333 2.667C13.333 32 28 25.333 28 10a5.966 5.966 0 0 0-.107-1.107A10.288 10.288 0 0 0 30.666 4z"/>
    </symbol>
    <symbol id="icon-instagram" viewBox="0 0 32 32">
      <path stroke-linejoin="round" stroke-linecap="round" stroke-width="2.667" d="M22.667 2.667H9.334a6.667 6.667 0 0 0-6.667 6.667v13.333a6.667 6.667 0 0 0 6.667 6.667h13.333a6.667 6.667 0 0 0 6.667-6.667V9.334a6.667 6.667 0 0 0-6.667-6.667z"/>
      <path stroke-linejoin="round" stroke-linecap="round" stroke-width="2.667" d="M21.333 15.16a5.329 5.329 0 0 1-2.878 5.546 5.337 5.337 0 0 1-6.169-.992 5.33 5.33 0 0 1 1.316-8.505 5.336 5.336 0 0 1 6.228.962 5.328 5.328 0 0 1 1.504 2.989zM23.333 8.667h.013"/>
    </symbol>
    <symbol id="icon-logoicon" viewBox="0 0 21 24">
    <path fill="none" stroke="#fd9222" style="stroke: var(--color1, #fd9222)" stroke-linejoin="round" stroke-linecap="round" stroke-miterlimit="4" stroke-width="2" d="M15.226 17.91l-10.64-6.648M7.521 6.449l10.639 6.648M6.972 19.398l8.802-14.437M19.382 11.091c-2.28-1.424-3.175-2.537-1.708-4.943l-7.22-4.512-8.801 14.438 10.639 6.648 7.090-11.63z"></path>
    </symbol>
    <symbol id="icon-phone" viewBox="0 0 24 24">
    <path stroke-linejoin="round" stroke-linecap="round" stroke-miterlimit="4" stroke-width="2" d="M22 16.92v3c0 0.002 0 0.005 0 0.007 0 1.105-0.896 2.001-2.001 2.001-0.063 0-0.125-0.003-0.187-0.009l0.008 0.001c-3.245-0.362-6.177-1.457-8.705-3.116l0.075 0.046c-2.432-1.561-4.439-3.568-5.953-5.923l-0.047-0.077c-1.619-2.465-2.715-5.41-3.062-8.582l-0.008-0.088c-0.005-0.054-0.008-0.117-0.008-0.18 0-1.104 0.894-1.999 1.998-2h3c0.006-0 0.013-0 0.020-0 1.006 0 1.838 0.742 1.979 1.709l0.001 0.011c0.127 0.96 0.362 1.903 0.7 2.81 0.081 0.209 0.128 0.451 0.128 0.704 0 0.548-0.221 1.045-0.578 1.406l-1.27 1.27c1.449 2.517 3.483 4.551 5.923 5.959l0.077 0.041 1.27-1.27c0.361-0.357 0.858-0.578 1.406-0.578 0.253 0 0.495 0.047 0.718 0.133l-0.014-0.005c0.907 0.338 1.85 0.573 2.81 0.7 0.978 0.142 1.721 0.974 1.721 1.98 0 0.017-0 0.035-0.001 0.052l0-0.003z"></path>
    </symbol>
    <symbol id="icon-user" viewBox="0 0 24 24">
    <path stroke-linejoin="round" stroke-linecap="round" stroke-miterlimit="4" stroke-width="2" d="M20 21v-2c0-2.209-1.791-4-4-4v0h-8c-2.209 0-4 1.791-4 4v0 2M12 11c2.209 0 4-1.791 4-4s-1.791-4-4-4v0c-2.209 0-4 1.791-4 4s1.791 4 4 4v0z"></path>
    </symbol>
    <symbol id="icon-mail" viewBox="0 0 24 24">
    <path stroke-linejoin="round" stroke-linecap="round" stroke-miterlimit="4" stroke-width="2" d="M4 4h16c1.1 0 2 0.9 2 2v12c0 1.1-0.9 2-2 2h-16c-1.1 0-2-0.9-2-2v-12c0-1.1 0.9-2 2-2z"></path>
    <path stroke-linejoin="round" stroke-linecap="round" stroke-miterlimit="4" stroke-width="2" d="M22 6l-10 7-10-7"></path>
    </symbol>
    <symbol id="icon-check" viewBox="0 0 32 32">
    <path d="M12.637 31.213c1.395 0 2.448-0.534 3.162-1.606l15.45-23.28c0.256-0.381 0.448-0.752 0.566-1.12 0.125-0.381 0.186-0.742 0.186-1.088 0-0.96-0.336-1.754-1.005-2.378-0.608-0.591-1.438-0.955-2.354-0.955-0.031 0-0.062 0-0.092 0.001l0.005-0c-0.672 0-1.238 0.134-1.709 0.4-0.458 0.256-0.893 0.704-1.306 1.341l-12.97 20.368-6.496-7.782c-0.618-0.749-1.547-1.223-2.587-1.223-0.020 0-0.040 0-0.059 0.001l0.003-0c-0.992 0-1.811 0.32-2.461 0.954-0.599 0.585-0.971 1.4-0.971 2.303 0 0.032 0 0.064 0.001 0.096l-0-0.005c0 0.435 0.064 0.848 0.202 1.238 0.144 0.381 0.406 0.774 0.787 1.187l8.618 10.16c0.794 0.928 1.802 1.389 3.030 1.389z"></path>
    </symbol>
    <symbol id="icon-menu-btn-1" viewBox="0 0 32 32">
    <path stroke-linejoin="round" stroke-linecap="round" stroke-miterlimit="4" stroke-width="2.2857" d="M4 16h24M4 8h24M4 24h24"></path>
    </symbol>
        <symbol id="icon-heroicons-solid_menu" viewBox="0 0 32 32">
        <path d="M4.799 8.001c0-0.424 0.169-0.831 0.469-1.131s0.707-0.469 1.131-0.469h19.2c0.424 0 0.831 0.169 1.131 0.469s0.469 0.707 0.469 1.131-0.169 0.831-0.469 1.131c-0.3 0.3-0.707 0.469-1.131 0.469h-19.2c-0.424 0-0.831-0.169-1.131-0.469s-0.469-0.707-0.469-1.131z"></path>
        <path d="M4.799 16.001c0-0.424 0.169-0.831 0.469-1.131s0.707-0.469 1.131-0.469h19.2c0.424 0 0.831 0.169 1.131 0.469s0.469 0.707 0.469 1.131c0 0.424-0.169 0.831-0.469 1.131s-0.707 0.469-1.131 0.469h-19.2c-0.424 0-0.831-0.169-1.131-0.469s-0.469-0.707-0.469-1.131z"></path>
        <path d="M4.799 24.001c0-0.424 0.169-0.831 0.469-1.131s0.707-0.469 1.131-0.469h19.2c0.424 0 0.831 0.169 1.131 0.469s0.469 0.707 0.469 1.131c0 0.424-0.169 0.831-0.469 1.131s-0.707 0.469-1.131 0.469h-19.2c-0.424 0-0.831-0.169-1.131-0.469s-0.469-0.707-0.469-1.131z"></path>
        </symbol>
  </defs>
</svg>
